<svg width="19" height="20" viewBox="0 0 19 20" fill="none" xmlns="http://www.w3.org/2000/svg">
<g id="material-symbols:ac-unit-rounded">
<path id="Vector" d="M8.99023 14.4486L7.03216 16.3687C6.89275 16.5081 6.71836 16.5778 6.50899 16.5778C6.29963 16.5778 6.12549 16.5017 5.98659 16.3496C5.83451 16.2102 5.75846 16.0358 5.75846 15.8265C5.75846 15.6171 5.83451 15.4366 5.98659 15.2851L8.99023 12.2814V10.7606H7.4694L4.44674 13.7832C4.30734 13.9226 4.13295 13.9924 3.92358 13.9924C3.71421 13.9924 3.53374 13.9163 3.38216 13.7642C3.24275 13.6248 3.17305 13.4504 3.17305 13.2411C3.17305 13.0317 3.24275 12.8576 3.38216 12.7187L5.30221 10.7606H2.88789C2.67244 10.7606 2.49501 10.6876 2.3556 10.5416C2.21619 10.3956 2.14648 10.2151 2.14648 10.0002C2.14648 9.78471 2.21948 9.60399 2.36548 9.45799C2.51148 9.31199 2.69196 9.23924 2.9069 9.23975H5.30221L3.38216 7.30069C3.24275 7.16128 3.17305 6.98714 3.17305 6.77828C3.17305 6.56942 3.24909 6.38869 3.40117 6.2361C3.54058 6.09669 3.71497 6.02699 3.92434 6.02699C4.13371 6.02699 4.31418 6.09669 4.46576 6.2361L7.4694 9.23975H8.99023V7.71891L5.96758 4.71527C5.82817 4.57586 5.75846 4.40172 5.75846 4.19286C5.75846 3.984 5.83451 3.80328 5.98659 3.65069C6.126 3.51128 6.30039 3.44157 6.50976 3.44157C6.71912 3.44157 6.89326 3.51128 7.03216 3.65069L8.99023 5.55173V3.15642C8.99023 2.94096 9.06323 2.76024 9.20923 2.61424C9.35523 2.46824 9.53571 2.39549 9.75065 2.396C9.9661 2.396 10.1468 2.469 10.2928 2.615C10.4388 2.761 10.5116 2.94147 10.5111 3.15642V5.55173L12.4501 3.65069C12.5895 3.51128 12.7639 3.44157 12.9733 3.44157C13.1827 3.44157 13.3631 3.51128 13.5147 3.65069C13.6541 3.80277 13.7238 3.9835 13.7238 4.19286C13.7238 4.40223 13.6541 4.57637 13.5147 4.71527L10.5111 7.71891V9.23975H12.0319L15.0355 6.2361C15.175 6.09669 15.3493 6.02699 15.5587 6.02699C15.7681 6.02699 15.9486 6.10303 16.1001 6.25511C16.2395 6.39452 16.3092 6.56866 16.3092 6.77752C16.3092 6.98638 16.2395 7.16077 16.1001 7.30069L14.1991 9.23975H16.5944C16.8099 9.23975 16.9906 9.31275 17.1366 9.45875C17.2826 9.60475 17.3553 9.78522 17.3548 10.0002C17.3548 10.2156 17.2818 10.3963 17.1358 10.5423C16.9898 10.6883 16.8093 10.7611 16.5944 10.7606H14.1991L16.1001 12.7187C16.2395 12.8581 16.3092 13.0325 16.3092 13.2418C16.3092 13.4512 16.2395 13.6253 16.1001 13.7642C15.948 13.9163 15.7673 13.9924 15.558 13.9924C15.3486 13.9924 15.1744 13.9163 15.0355 13.7642L12.0319 10.7606H10.5111V12.2814L13.5147 15.3041C13.6541 15.4435 13.7238 15.6179 13.7238 15.8272C13.7238 16.0366 13.6478 16.2171 13.4957 16.3687C13.3563 16.5081 13.1819 16.5778 12.9725 16.5778C12.7632 16.5778 12.589 16.5081 12.4501 16.3687L10.5111 14.4486V16.8629C10.5111 17.0784 10.4381 17.2558 10.2921 17.3952C10.1461 17.5346 9.9656 17.6043 9.75065 17.6043C9.5352 17.6043 9.35447 17.5313 9.20847 17.3853C9.06247 17.2393 8.98973 17.0589 8.99023 16.8439V14.4486Z" fill="#696969"/>
</g>
</svg>
