<svg width="24" height="25" viewBox="0 0 24 25" fill="none" xmlns="http://www.w3.org/2000/svg">
<g id="carbon:location-filled">
<path id="Vector" d="M12 2.17578C9.81276 2.17836 7.71584 3.04838 6.16923 4.595C4.62261 6.14162 3.75259 8.23854 3.75001 10.4258C3.74739 12.2132 4.33124 13.9521 5.41201 15.3758C5.41201 15.3758 5.63701 15.672 5.67376 15.7148L12 23.1758L18.3293 15.711C18.3623 15.6713 18.588 15.3758 18.588 15.3758L18.5888 15.3735C19.669 13.9505 20.2526 12.2124 20.25 10.4258C20.2474 8.23854 19.3774 6.14162 17.8308 4.595C16.2842 3.04838 14.1873 2.17836 12 2.17578ZM12 13.4258C11.4067 13.4258 10.8266 13.2498 10.3333 12.9202C9.83995 12.5905 9.45543 12.122 9.22837 11.5738C9.00131 11.0257 8.9419 10.4225 9.05765 9.84051C9.17341 9.25857 9.45913 8.72402 9.87869 8.30446C10.2982 7.8849 10.8328 7.59918 11.4147 7.48343C11.9967 7.36767 12.5999 7.42708 13.1481 7.65414C13.6962 7.88121 14.1648 8.26572 14.4944 8.75907C14.8241 9.25242 15 9.83244 15 10.4258C14.999 11.2211 14.6826 11.9836 14.1202 12.546C13.5578 13.1084 12.7954 13.4248 12 13.4258Z" fill="white"/>
</g>
</svg>
