<svg width="24" height="25" viewBox="0 0 24 25" fill="none" xmlns="http://www.w3.org/2000/svg">
<g id="bxs:phone-call">
<path id="Vector" d="M20.0002 11.6748H22.0002C22.0002 6.54478 18.1272 2.67578 12.9902 2.67578V4.67578C17.0522 4.67578 20.0002 7.61878 20.0002 11.6748Z" fill="white"/>
<path id="Vector_2" d="M13.0003 8.67602C15.1033 8.67602 16.0003 9.57302 16.0003 11.676H18.0003C18.0003 8.45102 16.2253 6.67602 13.0003 6.67602V8.67602ZM16.4223 14.119C16.2301 13.9444 15.9776 13.8512 15.7181 13.8593C15.4585 13.8673 15.2123 13.9758 15.0313 14.162L12.6383 16.623C12.0623 16.513 10.9043 16.152 9.71228 14.963C8.52028 13.77 8.15928 12.609 8.05228 12.037L10.5113 9.64302C10.6977 9.46215 10.8064 9.21584 10.8144 8.95623C10.8225 8.69661 10.7292 8.44406 10.5543 8.25202L6.85928 4.18902C6.68432 3.99638 6.44116 3.87952 6.18143 3.86328C5.92171 3.84704 5.66588 3.93268 5.46828 4.10202L3.29828 5.96302C3.12539 6.13654 3.0222 6.36747 3.00828 6.61202C2.99328 6.86202 2.70728 12.784 7.29928 17.378C11.3053 21.383 16.3233 21.676 17.7053 21.676C17.9073 21.676 18.0313 21.67 18.0643 21.668C18.3088 21.6543 18.5396 21.5507 18.7123 21.377L20.5723 19.206C20.7417 19.0085 20.8276 18.7528 20.8115 18.4931C20.7954 18.2333 20.6788 17.9901 20.4863 17.815L16.4223 14.119Z" fill="white"/>
</g>
</svg>
