<svg width="20" height="20" viewBox="0 0 20 20" fill="none" xmlns="http://www.w3.org/2000/svg">
<g id="fluent-mdl2:vacation" clip-path="url(#clip0_724_609)">
<path id="Vector" d="M16.4844 15.781C16.641 15.781 16.7764 15.8382 16.8909 15.9526C17.0053 16.0671 17.0625 16.2026 17.0625 16.3591C17.0625 16.5157 17.0053 16.6512 16.8909 16.7656C16.7764 16.88 16.641 16.9373 16.4844 16.9373H9.54688C9.3903 16.9373 9.2548 16.88 9.14038 16.7656C9.02596 16.6512 8.96875 16.5157 8.96875 16.3591C8.96875 16.2026 9.02596 16.0671 9.14038 15.9526C9.2548 15.8382 9.3903 15.781 9.54688 15.781H16.4844ZM15.3281 18.0935C15.4847 18.0935 15.6202 18.1507 15.7346 18.2651C15.849 18.3796 15.9062 18.5151 15.9062 18.6716C15.9062 18.8282 15.849 18.9637 15.7346 19.0781C15.6202 19.1925 15.4847 19.2498 15.3281 19.2498H10.7031C10.5465 19.2498 10.4111 19.1925 10.2966 19.0781C10.1822 18.9637 10.125 18.8282 10.125 18.6716C10.125 18.5151 10.1822 18.3796 10.2966 18.2651C10.4111 18.1507 10.5465 18.0935 10.7031 18.0935H15.3281ZM17.478 13.4685H19.375V14.6248H5.72583C5.66561 15.0102 5.62345 15.3956 5.59937 15.781C5.57528 16.1664 5.5542 16.5488 5.53613 16.9282C5.51807 17.3076 5.50903 17.693 5.50903 18.0845C5.50903 18.4759 5.50602 18.8643 5.5 19.2498H2.03125V17.5063C2.03125 17.0186 2.04932 16.5368 2.08545 16.061C2.12158 15.5853 2.17277 15.1065 2.23901 14.6248H0.875V13.4685H2.42871C2.72982 11.9931 3.18449 10.5749 3.79272 9.21387C4.40096 7.85286 5.15373 6.56714 6.05103 5.35669C5.17179 5.32658 4.36483 5.1429 3.63013 4.80566C2.89543 4.46842 2.22396 3.98665 1.61572 3.36035L1.20923 2.94482L1.63379 2.54736C2.26009 1.96322 2.94661 1.52059 3.69336 1.21948C4.4401 0.918376 5.24406 0.764811 6.10522 0.758789C7.04468 0.758789 7.90584 0.933431 8.68872 1.28271C9.4716 1.632 10.1912 2.13786 10.8477 2.80029C11.3114 2.81234 11.76 2.8846 12.1936 3.01709C12.6272 3.14958 13.0307 3.33024 13.4041 3.55908C13.7774 3.78792 14.1177 4.05892 14.4248 4.37207C14.7319 4.68522 14.9939 5.03149 15.2107 5.41089C15.4275 5.79028 15.5991 6.19678 15.7256 6.63037C15.8521 7.06396 15.9123 7.51562 15.9062 7.98535V8.56348H15.3281C14.5332 8.56348 13.7895 8.39486 13.0969 8.05762C12.4044 7.72038 11.8052 7.24162 11.2993 6.62134C10.8416 7.45239 10.2665 8.1359 9.57397 8.67188C8.88143 9.20784 8.07145 9.58423 7.14404 9.80103C6.88509 10.3972 6.65625 10.9994 6.45752 11.6077C6.25879 12.2159 6.08716 12.8362 5.94263 13.4685H8.55322C8.68571 12.9626 8.89347 12.4989 9.17651 12.0774C9.45955 11.6558 9.79679 11.2885 10.1882 10.9753C10.5797 10.6622 11.0193 10.4243 11.5071 10.2617C11.9949 10.0991 12.4977 10.0118 13.0156 9.99976C13.5396 9.99976 14.0424 10.0841 14.5242 10.2527C15.0059 10.4213 15.4425 10.6622 15.834 10.9753C16.2254 11.2885 16.5657 11.6528 16.8547 12.0684C17.1438 12.4839 17.3516 12.9506 17.478 13.4685ZM12.0581 4.18237C12.022 4.57381 11.9437 4.97127 11.8232 5.37476C12.1304 5.9047 12.5339 6.34432 13.0337 6.6936C13.5335 7.04289 14.0906 7.26571 14.7048 7.36206C14.6446 6.99471 14.5392 6.64844 14.3887 6.32324C14.2381 5.99805 14.0484 5.69393 13.8196 5.41089C13.5907 5.12785 13.3258 4.88696 13.0247 4.68823C12.7236 4.4895 12.4014 4.32088 12.0581 4.18237ZM10.9199 4.24561C10.3057 4.29378 9.72754 4.44434 9.18555 4.69727C8.64355 4.9502 8.15877 5.28141 7.7312 5.69092C7.30363 6.10042 6.95133 6.57316 6.67432 7.10913C6.3973 7.6451 6.21362 8.21419 6.12329 8.81641C6.63517 8.77425 7.11995 8.66585 7.57764 8.49121C8.03532 8.31657 8.45386 8.08171 8.83325 7.78662C9.21265 7.49154 9.54989 7.1543 9.84497 6.7749C10.1401 6.39551 10.384 5.96191 10.5767 5.47412C10.661 5.27539 10.7302 5.07365 10.7844 4.8689C10.8386 4.66414 10.8838 4.45638 10.9199 4.24561ZM2.89844 2.98096C3.38021 3.37842 3.91317 3.68254 4.49731 3.89331C5.08146 4.10409 5.68669 4.20947 6.31299 4.20947C6.89714 4.20947 7.46021 4.11914 8.0022 3.93848C8.54419 3.75781 9.05005 3.49284 9.51978 3.14355C9.038 2.74609 8.50505 2.44198 7.9209 2.2312C7.33675 2.02043 6.73153 1.91504 6.10522 1.91504C5.52108 1.91504 4.95801 2.00537 4.41602 2.18604C3.87402 2.3667 3.36816 2.63167 2.89844 2.98096ZM5.771 9.98169C5.72282 9.99373 5.67464 9.99976 5.62646 9.99976C5.57829 9.99976 5.53011 9.99976 5.48193 9.99976H5.19287C5.09652 9.99976 5.00016 9.99373 4.90381 9.98169V9.55713C4.58464 10.2677 4.31665 10.9663 4.09985 11.6528C3.88306 12.3394 3.7054 13.0319 3.56689 13.7305C3.42839 14.429 3.33203 15.1366 3.27783 15.8533C3.22363 16.5699 3.19352 17.3167 3.1875 18.0935H4.34375C4.34375 17.3648 4.36784 16.6602 4.41602 15.9797C4.46419 15.2992 4.54549 14.6278 4.65991 13.9653C4.77433 13.3029 4.92188 12.6435 5.10254 11.9871C5.2832 11.3306 5.50602 10.6622 5.771 9.98169ZM9.76367 13.4685H16.2676C16.1471 13.1252 15.9785 12.8121 15.7617 12.5291C15.5449 12.246 15.295 12.0021 15.012 11.7974C14.7289 11.5926 14.4158 11.436 14.0725 11.3276C13.7292 11.2192 13.377 11.162 13.0156 11.156C12.6483 11.156 12.296 11.2102 11.9587 11.3186C11.6215 11.427 11.3114 11.5836 11.0283 11.7883C10.7453 11.9931 10.4924 12.237 10.2695 12.52C10.0467 12.8031 9.87809 13.1192 9.76367 13.4685Z" fill="#696969"/>
</g>
<defs>
<clipPath id="clip0_724_609">
<rect width="18.5" height="18.5" fill="white" transform="translate(0.875 0.75)"/>
</clipPath>
</defs>
</svg>
